<?xml version="1.0" encoding="UTF-8"?>
<svg width="100px" height="100px" viewBox="0 0 100 100" version="1.1" xmlns="http://www.w3.org/2000/svg" xmlns:xlink="http://www.w3.org/1999/xlink">
    <!-- Generator: Sketch 46.2 (44496) - http://www.bohemiancoding.com/sketch -->
    <title>Group 4</title>
    <desc>Created with Sketch.</desc>
    <defs></defs>
    <g id="Page-1" stroke="none" stroke-width="1" fill="none" fill-rule="evenodd">
        <g id="170919-GH-Video-01" transform="translate(-867.000000, -868.000000)">
            <g id="Group-3" transform="translate(553.000000, 808.000000)">
                <g id="Group-4" transform="translate(314.000000, 60.000000)">
                    <g id="play-circle">
                        <g id="Group-2">
                            <path d="M50,0 C59.0711793,0 67.4370659,2.23524006 75.0976558,6.70572796 C82.7582457,11.1762159 88.8237846,17.241751 93.2942684,24.9023451 C97.7647561,32.5629353 100,40.9288184 100,50.0000019 C100,59.0711816 97.7647561,67.4370685 93.2942684,75.0976588 C88.8237846,82.758249 82.7582457,88.823788 75.0976558,93.294272 C67.4370659,97.7647599 59.0711793,100 50,100 C40.9288207,100 32.5629341,97.7647599 24.9023442,93.294272 C17.2417543,88.823788 11.1762154,82.758249 6.7057277,75.0976588 C2.23524386,67.4370685 0,59.0711816 0,50.0000019 C0,40.9288184 2.23524386,32.5629353 6.7057277,24.9023451 C11.1762154,17.241751 17.2417543,11.1762159 24.9023442,6.70572796 C32.5629341,2.23524006 40.9288207,0 50,0 Z" id="Shape" fill="#FFFFFF" fill-rule="nonzero"></path>
                            <path d="M74.9999981,53.5807315 C76.3888875,52.7994809 77.0833341,51.6059031 77.0833341,50.0000019 C77.0833341,48.3940969 76.3888875,47.2005191 74.9999981,46.4192724 L39.5833312,25.5859379 C38.2378457,24.7612835 36.8489563,24.7395835 35.4166668,25.520834 C34.0277774,26.3454846 33.3333346,27.5607624 33.3333346,29.1666675 L33.3333346,70.8333325 C33.3333346,72.4392376 34.0277774,73.6545154 35.4166668,74.479166 C36.1111096,74.8263893 36.8055563,75.000001 37.499999,75.000001 C38.2378457,75.000001 38.9322923,74.8046893 39.5833312,74.4140621 L74.9999981,53.5807315 Z" id="Path" fill="#2B7B00"></path>
                        </g>
                    </g>
                </g>
            </g>
        </g>
    </g>
</svg>