<?xml version="1.0" encoding="UTF-8" standalone="no"?>
<svg width="14px" height="14px" viewBox="0 0 14 14" version="1.1" xmlns="http://www.w3.org/2000/svg" xmlns:xlink="http://www.w3.org/1999/xlink">
    <!-- Generator: Sketch 41.2 (35397) - http://www.bohemiancoding.com/sketch -->
    <title>search-icon</title>
    <desc>Created with Sketch.</desc>
    <defs></defs>
    <g id="Symbols" stroke="none" stroke-width="1" fill="none" fill-rule="evenodd">
        <g id="Header-05" transform="translate(-1032.000000, -38.000000)" fill="#FFFFFF">
            <g id="search-icon" transform="translate(1026.000000, 32.000000)">
                <path d="M19.5,18.8 L15.3675,14.668 C16.075,13.805 16.5,12.7025 16.5,11.5 C16.5,8.7385 14.261,6.5 11.5,6.5 C8.739,6.5 6.5,8.7385 6.5,11.5 C6.5,14.2615 8.739,16.5 11.5,16.5 C12.702,16.5 13.805,16.075 14.668,15.3675 L18.8,19.5 L19.5,18.8 Z M11.5,15.5 C9.291,15.5 7.5,13.709 7.5,11.5 C7.5,9.291 9.291,7.5 11.5,7.5 C13.709,7.5 15.5,9.291 15.5,11.5 C15.5,13.709 13.709,15.5 11.5,15.5 Z"></path>
            </g>
        </g>
    </g>
</svg>