<?xml version="1.0" encoding="UTF-8" standalone="no"?>
<svg width="14px" height="14px" viewBox="0 0 14 14" version="1.1" xmlns="http://www.w3.org/2000/svg" xmlns:xlink="http://www.w3.org/1999/xlink">
    <!-- Generator: Sketch 41.2 (35397) - http://www.bohemiancoding.com/sketch -->
    <title>user-icon</title>
    <desc>Created with Sketch.</desc>
    <defs></defs>
    <g id="Symbols" stroke="none" stroke-width="1" fill="none" fill-rule="evenodd">
        <g id="Header-05" transform="translate(-1073.000000, -38.000000)" fill="#FFFFFF">
            <g id="Group-2" transform="translate(1067.000000, 32.000000)">
                <g id="user-icon" transform="translate(6.500000, 6.500000)">
                    <g id="Layer_1">
                        <path d="M9.39714286,7.18575 C10.1859643,6.42571429 10.6785714,5.36064286 10.6785714,4.17857143 C10.6785714,1.87060714 8.80796429,0 6.5,0 C4.19203571,0 2.32142857,1.87060714 2.32142857,4.17857143 C2.32142857,5.36064286 2.81403571,6.42571429 3.60285714,7.18575 C1.46807143,8.25082143 0,10.4524643 0,13 L13,13 C13,10.4524643 11.5319286,8.25082143 9.39714286,7.18575 Z M3.25,4.0625 C3.25,2.26757143 4.70507143,0.8125 6.5,0.8125 C8.29539286,0.8125 9.75,2.26757143 9.75,4.0625 C9.75,5.85742857 8.29539286,7.3125 6.5,7.3125 C4.70507143,7.3125 3.25,5.85742857 3.25,4.0625 Z M4.38644262,8.125 C5.01173839,8.4490766 5.73171769,8.63597558 6.49975969,8.63597558 C7.26780169,8.63597558 7.98778098,8.4490766 8.61259613,8.125 C10.462049,8.80023358 11.8481773,10.3300527 12.1875,12.1875 L0.8125,12.1875 C1.15134206,10.3296088 2.5369898,8.80023358 4.38644262,8.125 Z" id="Shape"></path>
                    </g>
                </g>
            </g>
        </g>
    </g>
</svg>